<?xml version="1.0" encoding="UTF-8" standalone="no"?>
<!-- Created with Inkscape (http://www.inkscape.org/) -->

<svg
   width="24.407711mm"
   height="28.344364mm"
   viewBox="0 0 24.407711 28.344364"
   version="1.1"
   id="svg466"
   xmlns="http://www.w3.org/2000/svg"
   xmlns:svg="http://www.w3.org/2000/svg">
  <defs
     id="defs463" />
  <g
     id="layer1"
     transform="translate(-56.483486,-85.813405)">
    <path
       style="fill:#000000;stroke-width:0.262448"
       d="m 58.320626,110.87723 v -3.28061 h -0.91857 -0.91857 v -4.85529 -4.855295 h 12.20385 12.203861 v 4.838675 4.83866 l -0.852957,0.0822 -0.852958,0.0822 -0.07369,3.215 -0.07369,3.215 H 68.679266 58.320626 Z m 19.421189,-0.65612 v -2.62449 h -9.054479 -9.05447 v 2.62449 2.62449 h 9.05447 9.054479 z m -6.321069,-4.5201 -0.30731,-0.54829 c 0,0 0.35318,-0.40656 0.46061,-0.61254 0.49891,-0.95659 0.5055,-3.05257 0.0126,-4.00572 -0.48921,-0.946035 -1.69497,-1.443625 -3.05585,-1.261095 -1.32852,0.17819 -1.99856,0.768675 -2.34899,2.070075 -0.61831,2.29625 0.42266,4.06121 2.47088,4.34729 0.54663,0.0764 1.25589,-0.0606 1.25589,-0.0606 l 0.3934,0.71815 z m -3.50587,-1.83706 c -0.85206,-1.2165 -0.22287,-3.35783 0.98418,-3.34941 0.80418,0.006 1.153,0.27959 1.49234,1.1721 0.16251,0.42745 0.3339,1.3912 -0.005,2.17937 -0.10091,-0.19999 -0.33814,-0.58599 -0.33814,-0.58599 l -1.09754,0.63773 c 0,0 0.1876,0.38124 0.28911,0.54105 -0.51771,0.16067 -1.07125,-0.23258 -1.32499,-0.59485 z m -3.21262,1.59381 c 0.77278,-0.40676 0.95816,-0.73242 0.96291,-1.69156 0.005,-1.02645 -0.58277,-1.55818 -2.16118,-1.95488 -0.93442,-0.23485 -1.24663,-0.43697 -1.24663,-0.80706 0,-0.37477 0.19169,-0.49374 0.79558,-0.49374 0.46508,0 0.85834,0.16355 0.94665,0.39368 0.0872,0.22726 0.4795,0.39367 0.92801,0.39367 0.68317,0 0.75561,-0.0713 0.6001,-0.59051 -0.2895,-0.966575 -1.18179,-1.496845 -2.52956,-1.503245 -1.01738,-0.005 -1.32073,0.11257 -1.77153,0.68568 -1.06737,1.356935 -0.43792,2.507585 1.71393,3.133145 1.0361,0.3012 1.42325,0.5357 1.36562,0.82712 -0.14147,0.71534 -1.15447,0.88812 -1.8766,0.32008 -0.85327,-0.67118 -1.7469,-0.67342 -1.7469,-0.004 0,1.24363 2.55269,2.06411 4.0196,1.29201 z m 12.252213,-0.61683 c 0,-0.31348 0.0091,-0.65734 0.0091,-0.65734 0,0 -0.831483,0.001 -1.583833,0.001 h -1.57469 v -2.36203 c 0,-2.344541 -0.012,-2.375671 -0.012,-2.375671 l -1.30023,0.01363 v 3.018161 3.01816 h 2.23081 c 1.10229,0 2.212969,-0.0313 2.212969,-0.0313 0,0 0.01785,-0.30078 0.01785,-0.62484 z m -18.629723,-10.038665 0.004,-1.77153 3.15226,-3.60866 3.15225,-3.60867 h 7.21034 7.210335 v 5.38019 5.38019 H 78.39781 77.741688 v -4.72407 -4.72408 h -6.167542 -6.16754 v 3.41184 3.41183 h -2.88693 -2.88694 v 1.31225 c 0,1.22475 -0.0437,1.31223 -0.65612,1.31223 -0.63547,0 -0.65599,-0.0557 -0.65199,-1.77152 z"
       id="path179" />
  </g>
</svg>
