<?xml version="1.0" encoding="UTF-8" standalone="no"?>
<!-- Created with Inkscape (http://www.inkscape.org/) -->

<svg
   width="103.96147mm"
   height="28.344366mm"
   viewBox="0 0 103.96147 28.344366"
   version="1.1"
   id="svg5"
   xml:space="preserve"
   xmlns="http://www.w3.org/2000/svg"
   xmlns:svg="http://www.w3.org/2000/svg"><defs
     id="defs2" /><g
     id="layer1"
     transform="translate(-41.073107,-80.116013)"><path
       style="fill:#000000;stroke-width:0.262448"
       d="m 42.910248,105.17984 v -3.28061 h -0.918571 -0.91857 v -4.855297 -4.85529 h 12.203857 12.203857 v 4.83867 4.838667 l -0.852957,0.0822 -0.852958,0.0822 -0.07369,3.215 -0.07369,3.215 H 53.268887 42.910248 Z m 19.421191,-0.65612 v -2.62449 H 53.276964 44.22249 v 2.62449 2.62449 h 9.054474 9.054475 z m -6.321072,-4.5201 -0.307306,-0.548289 c 0,0 0.353183,-0.406563 0.460613,-0.612548 0.498903,-0.95659 0.505496,-3.05257 0.0126,-4.00572 -0.489209,-0.94603 -1.694976,-1.44362 -3.055858,-1.26109 -1.32852,0.17819 -1.998554,0.76867 -2.348984,2.07007 -0.618315,2.29625 0.422654,4.061213 2.470878,4.347291 0.54663,0.0764 1.255894,-0.06059 1.255894,-0.06059 l 0.393394,0.718156 z M 52.5045,98.166553 c -0.852058,-1.216499 -0.222866,-3.35783 0.984183,-3.34941 0.804173,0.006 1.153002,0.27959 1.492333,1.1721 0.162518,0.427455 0.333899,1.391208 -0.005,2.179375 -0.100903,-0.199988 -0.338138,-0.585989 -0.338138,-0.585989 l -1.097537,0.637726 c 0,0 0.187599,0.381238 0.289113,0.541051 -0.517715,0.160672 -1.071253,-0.232578 -1.324997,-0.594853 z m -3.212623,1.593811 c 0.772787,-0.406761 0.958166,-0.732421 0.96291,-1.691561 0.0051,-1.02645 -0.582766,-1.55818 -2.161181,-1.95488 -0.934414,-0.23485 -1.24663,-0.43697 -1.24663,-0.80706 0,-0.37477 0.191699,-0.49374 0.795582,-0.49374 0.465078,0 0.858339,0.16355 0.946649,0.39368 0.08721,0.22726 0.479501,0.39367 0.928018,0.39367 0.683166,0 0.755604,-0.0713 0.600092,-0.59051 -0.289493,-0.96657 -1.181788,-1.49684 -2.52956,-1.50324 -1.017375,-0.005 -1.320725,0.11257 -1.771527,0.68568 -1.067365,1.35693 -0.437921,2.50758 1.713932,3.13314 1.036103,0.3012 1.423252,0.5357 1.365616,0.82712 -0.141472,0.71534 -1.154463,0.88812 -1.876602,0.32008 -0.85327,-0.67118 -1.746892,-0.67342 -1.746892,-0.004 0,1.24363 2.552682,2.064117 4.019593,1.292011 z m 12.252216,-0.616831 c 0,-0.31348 0.0091,-0.657336 0.0091,-0.657336 0,0 -0.831483,0.0012 -1.583834,0.0012 h -1.574691 v -2.36203 c 0,-2.34454 -0.01202,-2.37567 -0.01202,-2.37567 l -1.300225,0.01363 v 3.01816 3.018161 h 2.230812 c 1.102284,0 2.212964,-0.03128 2.212964,-0.03128 0,0 0.01785,-0.300779 0.01785,-0.624839 z m 10.543689,8.447047 c -0.507444,-0.54016 -0.570644,-0.89843 -0.570644,-3.23486 0,-2.40709 0.05094,-2.6753 0.607424,-3.19809 0.512357,-0.48133 0.915953,-0.57064 2.578738,-0.57064 1.72125,0 2.043697,0.0771 2.541958,0.60742 0.828647,0.88206 0.746375,1.49217 -0.201211,1.49217 -0.424521,0 -0.844848,-0.1181 -0.93406,-0.26245 -0.08921,-0.14434 -0.745742,-0.26244 -1.458957,-0.26244 h -1.296753 v 2.2308 2.23081 h 1.296753 c 0.713215,0 1.369746,-0.11809 1.458957,-0.26244 0.08921,-0.14435 0.509539,-0.26245 0.93406,-0.26245 0.967194,0 1.042873,0.70369 0.164432,1.52895 -0.512358,0.48133 -0.915954,0.57064 -2.578739,0.57064 -1.72125,0 -2.043697,-0.0771 -2.541958,-0.60742 z m 7.873456,0 c -0.507444,-0.54016 -0.570644,-0.89843 -0.570644,-3.23486 0,-2.40709 0.05095,-2.6753 0.607424,-3.19809 0.519304,-0.48786 0.912447,-0.57064 2.709962,-0.57064 1.858419,0 2.168791,0.0705 2.673183,0.60742 0.507444,0.54016 0.570644,0.89843 0.570644,3.23486 0,2.40709 -0.05095,2.6753 -0.607424,3.19809 -0.519304,0.48786 -0.912447,0.57064 -2.709962,0.57064 -1.858419,0 -2.168791,-0.0705 -2.673183,-0.60742 z m 4.15343,-3.19809 v -2.2308 h -1.443467 -1.443468 v 2.2308 2.23081 h 1.443468 1.443467 z m 3.41183,0 v -3.8055 h 0.905726 c 0.841988,0 0.972905,0.12013 1.860364,1.70705 0.52505,0.93888 1.036197,1.65664 1.135883,1.59504 0.09968,-0.0616 0.524306,-0.82979 0.943602,-1.70705 0.706335,-1.47783 0.826311,-1.59504 1.632671,-1.59504 h 0.870314 v 3.8055 3.80551 h -0.776733 -0.776732 l -0.07623,-2.1652 -0.07623,-2.1652 -0.746671,1.24663 c -0.42414,0.70814 -0.940044,1.24663 -1.194335,1.24663 -0.268868,0 -0.704394,-0.4979 -1.090466,-1.24663 l -0.642808,-1.24663 -0.07622,2.1652 -0.07623,2.1652 H 88.434447 87.52649 Z m 9.185699,0 v -3.8055 h 0.921022 c 0.872318,0 0.9655,0.0902 1.762244,1.70592 0.462674,0.93825 0.908627,1.70591 0.991007,1.70591 0.0824,0 0.52834,-0.76766 0.99102,-1.70591 0.79674,-1.61571 0.88992,-1.70592 1.76224,-1.70592 h 0.92102 v 3.8055 3.80551 h -0.91857 -0.91857 l -0.0122,-2.1652 -0.0122,-2.1652 -0.64893,1.24663 c -0.4388,0.843 -0.8156,1.24663 -1.16375,1.24663 -0.34813,0 -0.724936,-0.40363 -1.16376,-1.24663 l -0.648934,-1.24663 -0.01223,2.1652 -0.01221,2.1652 h -0.918569 -0.918571 z m 8.923253,0.69153 c 0,-2.75295 0.0631,-3.19417 0.54394,-3.80551 0.50913,-0.64726 0.68258,-0.69152 2.70996,-0.69152 1.92478,0 2.22958,0.0677 2.73666,0.60742 0.52145,0.55506 0.57065,0.88318 0.57065,3.80551 v 3.19808 h -0.91857 c -0.91527,0 -0.91857,-0.004 -0.91857,-1.19474 v -1.19473 l -1.37786,0.0794 -1.37785,0.0793 -0.0807,1.11541 c -0.0782,1.08061 -0.10889,1.11541 -0.98418,1.11541 h -0.90348 z m 4.72407,-1.74132 v -1.18101 h -1.44347 -1.44346 v 1.00604 c 0,0.55333 0.0788,1.08479 0.17496,1.18103 0.0962,0.0962 0.7458,0.17496 1.44347,0.17496 h 1.2685 z m 3.67428,1.04979 v -3.8055 h 0.75457 c 0.64275,0 0.95517,0.29018 2.10831,1.95828 0.74456,1.07704 1.46793,2.02882 1.60747,2.11507 0.15531,0.096 0.25372,-0.66356 0.25372,-1.95827 v -2.11508 h 0.78735 0.78734 v 3.8055 3.80551 h -0.73677 c -0.62704,0 -0.9593,-0.32232 -2.23081,-2.16403 l -1.49404,-2.16404 v 2.16404 2.16403 h -0.91857 -0.91857 z m 8.13591,0 v -3.8055 h 2.70995 c 2.49336,0 2.75558,0.0485 3.28061,0.60742 0.50745,0.54016 0.57065,0.89843 0.57065,3.23486 0,2.40709 -0.0509,2.6753 -0.60742,3.19809 -0.54159,0.50878 -0.8972,0.57064 -3.28062,0.57064 h -2.67317 z m 4.72407,0 v -2.2308 h -1.44347 -1.44347 v 2.2308 2.23081 h 1.44347 1.44347 z m 3.98248,3.19809 c -0.52145,-0.55506 -0.57065,-0.88318 -0.57065,-3.80551 v -3.19808 h 3.14938 3.14938 v 0.78735 0.78735 h -2.23081 -2.23081 v 0.78734 0.78735 h 1.96836 c 1.92463,0 1.96836,0.0146 1.96836,0.65611 0,0.64154 -0.0437,0.65612 -1.96836,0.65612 h -1.96836 v 0.78735 0.78734 h 2.23081 2.23081 v 0.78735 0.78735 h -2.57873 c -2.35619,0 -2.62798,-0.0524 -3.14938,-0.60742 z m 7.3028,-3.19809 v -3.8055 h 2.84119 c 2.63052,0 2.8835,0.045 3.41183,0.60742 0.78177,0.83217 0.80881,3.03242 0.0457,3.72298 -0.6507,0.58888 -0.6507,0.87404 0,1.70591 0.8139,1.04051 0.68548,1.5747 -0.37853,1.5747 -0.81086,0 -0.97894,-0.13444 -1.64031,-1.31197 -0.64809,-1.15391 -0.83964,-1.31201 -1.58983,-1.31225 -0.84861,-2.6e-4 -0.85296,0.006 -0.85296,1.31198 v 1.31224 h -0.91857 -0.91857 z m 4.98652,-1.31224 v -0.91856 h -1.57469 -1.57469 v 0.91856 0.91857 h 1.57469 1.57469 z M 79.17963,96.834613 c -0.461355,-0.476 -0.83883,-1.12557 -0.83883,-1.44347 0,-0.55427 -0.100224,-0.57802 -2.439998,-0.57802 h -2.439996 l -0.971834,-0.99524 -0.971834,-0.99525 v -4.98781 -4.98781 l 0.995246,-0.97183 0.99525,-0.97183 h 4.200458 4.20046 l 0.971833,0.99525 0.971834,0.99524 v 4.57186 4.57185 l -1.099893,1.1207 -1.099893,1.12072 0.574996,0.61205 c 0.402625,0.42857 0.574996,0.94136 0.574996,1.71054 v 1.0985 h -1.391983 c -1.230017,0 -1.489586,-0.1007 -2.230812,-0.86545 z m 0.99831,-8.97637 v -4.06796 h -2.624485 -2.624487 v 4.06796 4.06795 h 2.624487 2.624485 z m 7.665652,5.82954 -1.104439,-1.12533 v -5.82955 -5.82955 h 1.705915 1.705916 v 5.51142 5.51142 h 2.75571 2.75571 v -5.51142 -5.51142 h 1.705914 1.705916 v 5.85045 5.85045 l -1.12534,1.10443 -1.125339,1.10444 H 92.885792 88.94803 Z m 15.222008,0 -1.10444,-1.12533 v -5.82955 -5.82955 h 5.9051 5.90509 v 1.44346 1.44347 h -4.06795 -4.06795 v 1.31225 1.31224 h 3.54305 3.54306 v 1.44347 1.44346 h -3.54306 -3.54305 v 1.31225 1.31224 h 4.06795 4.06795 v 1.44346 1.44347 h -4.80065 -4.80066 z m 13.85513,-5.82954 v -6.95489 h 5.32693 5.32693 l 0.97184,0.99525 0.97183,0.99524 v 2.36333 2.36332 l -1.04979,1.02509 c -0.57739,0.5638 -1.0498,1.12571 -1.0498,1.24868 0,0.12298 0.47241,0.91924 1.0498,1.76948 0.6583,0.96939 1.04979,1.84488 1.04979,2.34764 v 0.80174 l -1.6403,-0.002 -1.6403,-0.002 -1.51998,-2.49091 -1.51998,-2.49091 h -1.43257 -1.43257 v 2.49326 2.49326 h -1.70591 -1.70592 v -6.95488 z m 9.18571,-2.49327 v -1.57469 h -2.88694 -2.88694 v 1.57469 1.57469 h 2.88694 2.88694 z m 10.49793,7.14839 v -2.29978 l -2.36203,-3.87231 c -1.58096,-2.59183 -2.36204,-4.13116 -2.36204,-4.65511 0,-0.78114 0.003,-0.78281 1.56279,-0.78281 h 1.5628 l 1.61071,2.75571 c 0.8859,1.51564 1.68844,2.7522 1.78343,2.74792 0.095,-0.004 0.87178,-1.24436 1.72619,-2.75572 l 1.55348,-2.74791 h 1.66152 c 1.5919,0 1.66151,0.0272 1.66151,0.6482 0,0.36056 -1.10645,2.43956 -2.49326,4.68482 l -2.49327,4.03662 v 2.27007 2.27006 h -1.70591 -1.70592 z m -93.689996,-3.40849 0.0042,-1.77153 3.152252,-3.60866 3.152251,-3.60867 h 7.210339 7.210339 v 5.38019 5.38019 h -0.656121 -0.656122 v -4.72407 -4.72408 h -6.16754 -6.16754 v 3.41184 3.41183 h -2.886935 -2.886934 v 1.31225 c 0,1.22475 -0.04374,1.31223 -0.656121,1.31223 -0.635468,0 -0.655991,-0.0557 -0.651994,-1.77152 z"
       id="path179" /></g></svg>
